<svg width="120" height="120" viewBox="0 0 120 120" fill="none" xmlns="http://www.w3.org/2000/svg">
<path d="M60 10C32.4 10 10 32.4 10 60C10 87.6 32.4 110 60 110C87.6 110 110 87.6 110 60C110 32.4 87.6 10 60 10ZM90 63.7C89.4 79.15 76.65 91.9 61.2 92.5C54.0649 92.7862 47.0619 90.5159 41.4521 86.0976C35.8422 81.6793 31.9938 75.4035 30.6 68.4C29.95 65.35 32.4 62.5 35.5 62.5C37.85 62.5 39.9 64.15 40.4 66.5C40.923 69.0751 41.9486 71.5218 43.4183 73.7C44.888 75.8783 46.7727 77.7453 48.9648 79.1943C51.1568 80.6433 53.6131 81.6458 56.193 82.1444C58.773 82.643 61.4259 82.6279 64 82.1C71.8 80.6 78.1 74.3 79.6 66.5C80.1932 63.5939 80.1326 60.5921 79.4226 57.7123C78.7125 54.8325 77.3709 52.1466 75.4947 49.8493C73.6186 47.552 71.255 45.7007 68.575 44.4296C65.8951 43.1585 62.9661 42.4994 60 42.5V51.45C60 53.7 57.3 54.8 55.75 53.2L41.75 39.25C40.75 38.25 40.75 36.7 41.75 35.7L55.7 21.75C57.3 20.2 60 21.3 60 23.55V32.5C64.0407 32.5038 68.0391 33.3224 71.7561 34.9069C75.4731 36.4915 78.8324 38.8094 81.633 41.7221C84.4337 44.6347 86.6181 48.0823 88.0557 51.8586C89.4934 55.6349 90.1546 59.6623 90 63.7Z" fill="#DE7029"/>
</svg>
